<svg xmlns="http://www.w3.org/2000/svg" viewBox="0 0 800 450">
  <defs>
    <linearGradient id="bg" x1="0%" y1="0%" x2="100%" y2="100%">
      <stop offset="0%" stop-color="#0f4c81"/>
      <stop offset="100%" stop-color="#06b6d4"/>
    </linearGradient>
    <linearGradient id="iconGrad" x1="0%" y1="0%" x2="100%" y2="100%">
      <stop offset="0%" stop-color="#ffffff" stop-opacity="0.25"/>
      <stop offset="100%" stop-color="#ffffff" stop-opacity="0.08"/>
    </linearGradient>
  </defs>
  <rect width="800" height="450" fill="url(#bg)"/>
  <circle cx="720" cy="50" r="180" fill="white" opacity="0.05"/>
  <circle cx="60" cy="420" r="150" fill="white" opacity="0.05"/>
  <circle cx="680" cy="380" r="90" fill="white" opacity="0.04"/>
  <!-- Icon circle -->
  <circle cx="400" cy="175" r="90" fill="url(#iconGrad)" stroke="white" stroke-opacity="0.2" stroke-width="1.5"/>
  <!-- Microphone body -->
  <rect x="378" y="120" width="44" height="70" rx="22" fill="white" opacity="0.92"/>
  <!-- Mic stand -->
  <rect x="397" y="190" width="6" height="28" rx="3" fill="white" opacity="0.92"/>
  <!-- Mic base arc -->
  <path d="M 365 190 A 35 35 0 0 0 435 190" stroke="white" stroke-width="5" fill="none" stroke-linecap="round" opacity="0.92"/>
  <!-- Mic base line -->
  <rect x="382" y="218" width="36" height="5" rx="2.5" fill="white" opacity="0.92"/>
  <!-- Translation arrows left -->
  <path d="M 300 165 L 340 165" stroke="white" stroke-width="3" stroke-linecap="round" opacity="0.7"/>
  <path d="M 300 165 L 310 158 M 300 165 L 310 172" stroke="white" stroke-width="3" stroke-linecap="round" opacity="0.7"/>
  <path d="M 320 185 L 360 185" stroke="white" stroke-width="3" stroke-linecap="round" opacity="0.7"/>
  <path d="M 360 185 L 350 178 M 360 185 L 350 192" stroke="white" stroke-width="3" stroke-linecap="round" opacity="0.7"/>
  <!-- Translation arrows right -->
  <path d="M 460 165 L 500 165" stroke="white" stroke-width="3" stroke-linecap="round" opacity="0.7"/>
  <path d="M 500 165 L 490 158 M 500 165 L 490 172" stroke="white" stroke-width="3" stroke-linecap="round" opacity="0.7"/>
  <path d="M 440 185 L 480 185" stroke="white" stroke-width="3" stroke-linecap="round" opacity="0.7"/>
  <path d="M 440 185 L 450 178 M 440 185 L 450 192" stroke="white" stroke-width="3" stroke-linecap="round" opacity="0.7"/>
  <!-- Title -->
  <text x="400" y="305" text-anchor="middle" font-family="Poppins, Arial, sans-serif" font-size="38" font-weight="700" fill="white" letter-spacing="1">Turner</text>
  <text x="400" y="337" text-anchor="middle" font-family="Poppins, Arial, sans-serif" font-size="16" fill="white" opacity="0.75" letter-spacing="0.5">LiveVoiceTranslator · Android &amp; iOS</text>
  <!-- Tech tags -->
  <rect x="190" y="362" width="155" height="28" rx="14" fill="white" opacity="0.13"/>
  <text x="267" y="381" text-anchor="middle" font-family="Arial, sans-serif" font-size="12" fill="white" opacity="0.9">Kotlin Multiplatform</text>
  <rect x="358" y="362" width="88" height="28" rx="14" fill="white" opacity="0.13"/>
  <text x="402" y="381" text-anchor="middle" font-family="Arial, sans-serif" font-size="12" fill="white" opacity="0.9">Compose</text>
  <rect x="458" y="362" width="88" height="28" rx="14" fill="white" opacity="0.13"/>
  <text x="502" y="381" text-anchor="middle" font-family="Arial, sans-serif" font-size="12" fill="white" opacity="0.9">ML Kit</text>
  <!-- Envobyte tag -->
  <text x="400" y="422" text-anchor="middle" font-family="Arial, sans-serif" font-size="13" fill="white" opacity="0.5">Envobyte LTD · Dec 2025 – Jan 2026</text>
</svg>
